<?xml version="1.0" encoding="us-ascii" standalone="no"?><svg xmlns="http://www.w3.org/2000/svg" xmlns:xlink="http://www.w3.org/1999/xlink" contentStyleType="text/css" height="725px" preserveAspectRatio="none" style="width:811px;height:725px;background:#FFFFFF;" version="1.1" viewBox="0 0 811 725" width="811px" zoomAndPan="magnify"><defs/><g><!--class M--><g id="elem_M"><rect codeLine="2" fill="#F1F1F1" height="103.8633" id="M" rx="2.5" ry="2.5" style="stroke:#181818;stroke-width:0.5;" width="199" x="291.5" y="264"/><ellipse cx="367.25" cy="280" fill="#A9DCDF" rx="11" ry="11" style="stroke:#181818;stroke-width:1.0;"/><path d="M369.4375,281.7656 L365.2969,281.7656 L364.875,282.7969 L365.2969,282.7969 Q365.9063,282.7969 366.1719,283.0313 Q366.4375,283.2656 366.4375,283.6563 Q366.4375,284.0313 366.1719,284.2656 Q365.9063,284.5 365.2969,284.5 L363,284.5 Q362.3906,284.5 362.1406,284.2656 Q361.875,284.0313 361.875,283.6406 Q361.875,283.2656 362.1563,283.0313 Q362.4219,282.7813 363.0469,282.7969 L365.7188,276.1406 L364.6094,276.1406 Q364,276.1406 363.7344,275.9063 Q363.4688,275.6719 363.4688,275.2813 Q363.4688,274.9063 363.7344,274.6719 Q364,274.4375 364.6094,274.4375 L368.2813,274.4375 L371.6719,282.7969 Q372.2656,282.7969 372.4531,282.9375 Q372.8438,283.2031 372.8438,283.6563 Q372.8438,284.0313 372.5781,284.2656 Q372.3281,284.5 371.7188,284.5 L369.4219,284.5 Q368.8125,284.5 368.5469,284.2656 Q368.2813,284.0313 368.2813,283.6406 Q368.2813,283.2656 368.5469,283.0313 Q368.8125,282.7969 369.4219,282.7969 L369.8438,282.7969 L369.4375,281.7656 Z M368.7188,280.0625 L367.3594,276.6875 L365.9844,280.0625 L368.7188,280.0625 Z " fill="#000000"/><text fill="#000000" font-family="sans-serif" font-size="14" font-style="italic" lengthAdjust="spacing" textLength="39" x="387.75" y="285.7969">M&#233;dia</text><line style="stroke:#181818;stroke-width:0.5;" x1="292.5" x2="489.5" y1="296" y2="296"/><polygon fill="none" points="302.5,305.8105,306.5,309.8105,302.5,313.8105,298.5,309.8105" style="stroke:#B38D22;stroke-width:1.0;"/><text fill="#000000" font-family="sans-serif" font-size="14" lengthAdjust="spacing" textLength="78" x="311.5" y="315.1074">titre : chaine</text><polygon fill="none" points="302.5,324.4316,306.5,328.4316,302.5,332.4316,298.5,328.4316" style="stroke:#B38D22;stroke-width:1.0;"/><text fill="#000000" font-family="sans-serif" font-size="14" lengthAdjust="spacing" textLength="138" x="311.5" y="333.7285">dur&#233;eEmprunt : entier</text><line style="stroke:#181818;stroke-width:0.5;" x1="292.5" x2="489.5" y1="341.2422" y2="341.2422"/><ellipse cx="302.5" cy="356.0527" fill="#84BE84" rx="3" ry="3" style="stroke:#038048;stroke-width:1.0;"/><text fill="#000000" font-family="sans-serif" font-size="14" font-style="italic" lengthAdjust="spacing" textLength="173" x="311.5" y="360.3496">informationsMedia() : string</text></g><!--class L--><g id="elem_L"><rect codeLine="8" fill="#F1F1F1" height="103.8633" id="L" rx="2.5" ry="2.5" style="stroke:#181818;stroke-width:0.5;" width="130" x="7" y="559"/><ellipse cx="52.25" cy="575" fill="#ADD1B2" rx="11" ry="11" style="stroke:#181818;stroke-width:1.0;"/><path d="M55.0156,570.875 Q55.1719,570.6563 55.3594,570.5469 Q55.5469,570.4375 55.7656,570.4375 Q56.1406,570.4375 56.375,570.7031 Q56.6094,570.9531 56.6094,571.5625 L56.6094,573.0156 Q56.6094,573.625 56.375,573.8906 Q56.1406,574.1563 55.7656,574.1563 Q55.4219,574.1563 55.2188,573.9531 Q55.0156,573.7656 54.9063,573.25 Q54.8594,572.8906 54.6719,572.7031 Q54.3438,572.3281 53.7344,572.1094 Q53.125,571.8906 52.5,571.8906 Q51.7344,571.8906 51.0938,572.2188 Q50.4688,572.5469 49.9688,573.2969 Q49.4844,574.0469 49.4844,575.0781 L49.4844,576.1719 Q49.4844,577.4063 50.375,578.2344 Q51.2656,579.0469 52.8594,579.0469 Q53.7969,579.0469 54.4531,578.7969 Q54.8438,578.6406 55.2656,578.2031 Q55.5313,577.9375 55.6719,577.8594 Q55.8281,577.7813 56.0313,577.7813 Q56.3594,577.7813 56.6094,578.0469 Q56.875,578.2969 56.875,578.6406 Q56.875,578.9844 56.5313,579.3906 Q56.0313,579.9688 55.2344,580.2969 Q54.1563,580.75 52.8594,580.75 Q51.3438,580.75 50.1406,580.125 Q49.1563,579.625 48.4688,578.5625 Q47.7813,577.4844 47.7813,576.2031 L47.7813,575.0469 Q47.7813,573.7188 48.3906,572.5781 Q49.0156,571.4219 50.1094,570.8125 Q51.2031,570.1875 52.4375,570.1875 Q53.1719,570.1875 53.8125,570.3594 Q54.4688,570.5156 55.0156,570.875 Z " fill="#000000"/><text fill="#000000" font-family="sans-serif" font-size="14" lengthAdjust="spacing" textLength="31" x="72.75" y="580.7969">Livre</text><line style="stroke:#181818;stroke-width:0.5;" x1="8" x2="136" y1="591" y2="591"/><rect fill="none" height="6" style="stroke:#C82930;stroke-width:1.0;" width="6" x="15" y="602.8105"/><text fill="#000000" font-family="sans-serif" font-size="14" lengthAdjust="spacing" textLength="80" x="27" y="610.1074">isbn : chaine</text><rect fill="none" height="6" style="stroke:#C82930;stroke-width:1.0;" width="6" x="15" y="621.4316"/><text fill="#000000" font-family="sans-serif" font-size="14" lengthAdjust="spacing" textLength="95" x="27" y="628.7285">auteur : chaine</text><rect fill="none" height="6" style="stroke:#C82930;stroke-width:1.0;" width="6" x="15" y="640.0527"/><text fill="#000000" font-family="sans-serif" font-size="14" lengthAdjust="spacing" textLength="104" x="27" y="647.3496">nbPages : entier</text><line style="stroke:#181818;stroke-width:0.5;" x1="8" x2="136" y1="654.8633" y2="654.8633"/></g><!--class BR--><g id="elem_BR"><rect codeLine="14" fill="#F1F1F1" height="103.8633" id="BR" rx="2.5" ry="2.5" style="stroke:#181818;stroke-width:0.5;" width="157" x="172.5" y="559"/><ellipse cx="221.75" cy="575" fill="#ADD1B2" rx="11" ry="11" style="stroke:#181818;stroke-width:1.0;"/><path d="M224.5156,570.875 Q224.6719,570.6563 224.8594,570.5469 Q225.0469,570.4375 225.2656,570.4375 Q225.6406,570.4375 225.875,570.7031 Q226.1094,570.9531 226.1094,571.5625 L226.1094,573.0156 Q226.1094,573.625 225.875,573.8906 Q225.6406,574.1563 225.2656,574.1563 Q224.9219,574.1563 224.7188,573.9531 Q224.5156,573.7656 224.4063,573.25 Q224.3594,572.8906 224.1719,572.7031 Q223.8438,572.3281 223.2344,572.1094 Q222.625,571.8906 222,571.8906 Q221.2344,571.8906 220.5938,572.2188 Q219.9688,572.5469 219.4688,573.2969 Q218.9844,574.0469 218.9844,575.0781 L218.9844,576.1719 Q218.9844,577.4063 219.875,578.2344 Q220.7656,579.0469 222.3594,579.0469 Q223.2969,579.0469 223.9531,578.7969 Q224.3438,578.6406 224.7656,578.2031 Q225.0313,577.9375 225.1719,577.8594 Q225.3281,577.7813 225.5313,577.7813 Q225.8594,577.7813 226.1094,578.0469 Q226.375,578.2969 226.375,578.6406 Q226.375,578.9844 226.0313,579.3906 Q225.5313,579.9688 224.7344,580.2969 Q223.6563,580.75 222.3594,580.75 Q220.8438,580.75 219.6406,580.125 Q218.6563,579.625 217.9688,578.5625 Q217.2813,577.4844 217.2813,576.2031 L217.2813,575.0469 Q217.2813,573.7188 217.8906,572.5781 Q218.5156,571.4219 219.6094,570.8125 Q220.7031,570.1875 221.9375,570.1875 Q222.6719,570.1875 223.3125,570.3594 Q223.9688,570.5156 224.5156,570.875 Z " fill="#000000"/><text fill="#000000" font-family="sans-serif" font-size="14" lengthAdjust="spacing" textLength="50" x="242.25" y="580.7969">Blu-Ray</text><line style="stroke:#181818;stroke-width:0.5;" x1="173.5" x2="328.5" y1="591" y2="591"/><rect fill="none" height="6" style="stroke:#C82930;stroke-width:1.0;" width="6" x="180.5" y="602.8105"/><text fill="#000000" font-family="sans-serif" font-size="14" lengthAdjust="spacing" textLength="121" x="192.5" y="610.1074">r&#233;alisateur : chaine</text><rect fill="none" height="6" style="stroke:#C82930;stroke-width:1.0;" width="6" x="180.5" y="621.4316"/><text fill="#000000" font-family="sans-serif" font-size="14" lengthAdjust="spacing" textLength="91" x="192.5" y="628.7285">dur&#233;e : chaine</text><rect fill="none" height="6" style="stroke:#C82930;stroke-width:1.0;" width="6" x="180.5" y="640.0527"/><text fill="#000000" font-family="sans-serif" font-size="14" lengthAdjust="spacing" textLength="131" x="192.5" y="647.3496">anneeSortie : chaine</text><line style="stroke:#181818;stroke-width:0.5;" x1="173.5" x2="328.5" y1="654.8633" y2="654.8633"/></g><!--class Ma--><g id="elem_Ma"><rect codeLine="20" fill="#F1F1F1" height="85.2422" id="Ma" rx="2.5" ry="2.5" style="stroke:#181818;stroke-width:0.5;" width="182" x="365" y="568.5"/><ellipse cx="421.75" cy="584.5" fill="#ADD1B2" rx="11" ry="11" style="stroke:#181818;stroke-width:1.0;"/><path d="M424.5156,580.375 Q424.6719,580.1563 424.8594,580.0469 Q425.0469,579.9375 425.2656,579.9375 Q425.6406,579.9375 425.875,580.2031 Q426.1094,580.4531 426.1094,581.0625 L426.1094,582.5156 Q426.1094,583.125 425.875,583.3906 Q425.6406,583.6563 425.2656,583.6563 Q424.9219,583.6563 424.7188,583.4531 Q424.5156,583.2656 424.4063,582.75 Q424.3594,582.3906 424.1719,582.2031 Q423.8438,581.8281 423.2344,581.6094 Q422.625,581.3906 422,581.3906 Q421.2344,581.3906 420.5938,581.7188 Q419.9688,582.0469 419.4688,582.7969 Q418.9844,583.5469 418.9844,584.5781 L418.9844,585.6719 Q418.9844,586.9063 419.875,587.7344 Q420.7656,588.5469 422.3594,588.5469 Q423.2969,588.5469 423.9531,588.2969 Q424.3438,588.1406 424.7656,587.7031 Q425.0313,587.4375 425.1719,587.3594 Q425.3281,587.2813 425.5313,587.2813 Q425.8594,587.2813 426.1094,587.5469 Q426.375,587.7969 426.375,588.1406 Q426.375,588.4844 426.0313,588.8906 Q425.5313,589.4688 424.7344,589.7969 Q423.6563,590.25 422.3594,590.25 Q420.8438,590.25 419.6406,589.625 Q418.6563,589.125 417.9688,588.0625 Q417.2813,586.9844 417.2813,585.7031 L417.2813,584.5469 Q417.2813,583.2188 417.8906,582.0781 Q418.5156,580.9219 419.6094,580.3125 Q420.7031,579.6875 421.9375,579.6875 Q422.6719,579.6875 423.3125,579.8594 Q423.9688,580.0156 424.5156,580.375 Z " fill="#000000"/><text fill="#000000" font-family="sans-serif" font-size="14" lengthAdjust="spacing" textLength="60" x="442.25" y="590.2969">Magazine</text><line style="stroke:#181818;stroke-width:0.5;" x1="366" x2="546" y1="600.5" y2="600.5"/><rect fill="none" height="6" style="stroke:#C82930;stroke-width:1.0;" width="6" x="373" y="612.3105"/><text fill="#000000" font-family="sans-serif" font-size="14" lengthAdjust="spacing" textLength="156" x="385" y="619.6074">num&#233;roMagazine : entier</text><rect fill="none" height="6" style="stroke:#C82930;stroke-width:1.0;" width="6" x="373" y="630.9316"/><text fill="#000000" font-family="sans-serif" font-size="14" lengthAdjust="spacing" textLength="137" x="385" y="638.2285">datePublication : date</text><line style="stroke:#181818;stroke-width:0.5;" x1="366" x2="546" y1="645.7422" y2="645.7422"/></g><!--class A--><g id="elem_A"><rect codeLine="25" fill="#F1F1F1" height="215.5898" id="A" rx="2.5" ry="2.5" style="stroke:#181818;stroke-width:0.5;" width="204" x="526" y="208"/><ellipse cx="594.75" cy="224" fill="#ADD1B2" rx="11" ry="11" style="stroke:#181818;stroke-width:1.0;"/><path d="M597.5156,219.875 Q597.6719,219.6563 597.8594,219.5469 Q598.0469,219.4375 598.2656,219.4375 Q598.6406,219.4375 598.875,219.7031 Q599.1094,219.9531 599.1094,220.5625 L599.1094,222.0156 Q599.1094,222.625 598.875,222.8906 Q598.6406,223.1563 598.2656,223.1563 Q597.9219,223.1563 597.7188,222.9531 Q597.5156,222.7656 597.4063,222.25 Q597.3594,221.8906 597.1719,221.7031 Q596.8438,221.3281 596.2344,221.1094 Q595.625,220.8906 595,220.8906 Q594.2344,220.8906 593.5938,221.2188 Q592.9688,221.5469 592.4688,222.2969 Q591.9844,223.0469 591.9844,224.0781 L591.9844,225.1719 Q591.9844,226.4063 592.875,227.2344 Q593.7656,228.0469 595.3594,228.0469 Q596.2969,228.0469 596.9531,227.7969 Q597.3438,227.6406 597.7656,227.2031 Q598.0313,226.9375 598.1719,226.8594 Q598.3281,226.7813 598.5313,226.7813 Q598.8594,226.7813 599.1094,227.0469 Q599.375,227.2969 599.375,227.6406 Q599.375,227.9844 599.0313,228.3906 Q598.5313,228.9688 597.7344,229.2969 Q596.6563,229.75 595.3594,229.75 Q593.8438,229.75 592.6406,229.125 Q591.6563,228.625 590.9688,227.5625 Q590.2813,226.4844 590.2813,225.2031 L590.2813,224.0469 Q590.2813,222.7188 590.8906,221.5781 Q591.5156,220.4219 592.6094,219.8125 Q593.7031,219.1875 594.9375,219.1875 Q595.6719,219.1875 596.3125,219.3594 Q596.9688,219.5156 597.5156,219.875 Z " fill="#000000"/><text fill="#000000" font-family="sans-serif" font-size="14" lengthAdjust="spacing" textLength="58" x="615.25" y="229.7969">Adh&#233;rent</text><line style="stroke:#181818;stroke-width:0.5;" x1="527" x2="729" y1="240" y2="240"/><rect fill="none" height="6" style="stroke:#C82930;stroke-width:1.0;" width="6" x="534" y="251.8105"/><text fill="#000000" font-family="sans-serif" font-size="14" lengthAdjust="spacing" textLength="160" x="546" y="259.1074">numeroAdherent : chaine</text><rect fill="none" height="6" style="stroke:#C82930;stroke-width:1.0;" width="6" x="534" y="270.4316"/><text fill="#000000" font-family="sans-serif" font-size="14" lengthAdjust="spacing" textLength="102" x="546" y="277.7285">prenom : chaine</text><rect fill="none" height="6" style="stroke:#C82930;stroke-width:1.0;" width="6" x="534" y="289.0527"/><text fill="#000000" font-family="sans-serif" font-size="14" lengthAdjust="spacing" textLength="81" x="546" y="296.3496">nom : chaine</text><rect fill="none" height="6" style="stroke:#C82930;stroke-width:1.0;" width="6" x="534" y="307.6738"/><text fill="#000000" font-family="sans-serif" font-size="14" lengthAdjust="spacing" textLength="87" x="546" y="314.9707">email : chaine</text><rect fill="none" height="6" style="stroke:#C82930;stroke-width:1.0;" width="6" x="534" y="326.2949"/><text fill="#000000" font-family="sans-serif" font-size="14" lengthAdjust="spacing" textLength="127" x="546" y="333.5918">dateAdh&#233;sion : date</text><line style="stroke:#181818;stroke-width:0.5;" x1="527" x2="729" y1="341.1055" y2="341.1055"/><rect fill="#F24D5C" height="6" style="stroke:#C82930;stroke-width:1.0;" width="6" x="534" y="352.916"/><text fill="#000000" font-family="sans-serif" font-size="14" lengthAdjust="spacing" textLength="163" x="546" y="360.2129">genererNumero() : chaine</text><ellipse cx="537" cy="374.5371" fill="#84BE84" rx="3" ry="3" style="stroke:#038048;stroke-width:1.0;"/><text fill="#000000" font-family="sans-serif" font-size="14" lengthAdjust="spacing" textLength="175" x="546" y="378.834">renouvelerAdh&#233;sion() : vide</text><ellipse cx="537" cy="393.1582" fill="#84BE84" rx="3" ry="3" style="stroke:#038048;stroke-width:1.0;"/><text fill="#000000" font-family="sans-serif" font-size="14" lengthAdjust="spacing" textLength="152" x="546" y="397.4551">infosAdh&#233;rent() : chaine</text><ellipse cx="537" cy="411.7793" fill="#84BE84" rx="3" ry="3" style="stroke:#038048;stroke-width:1.0;"/><text fill="#000000" font-family="sans-serif" font-size="14" lengthAdjust="spacing" textLength="178" x="546" y="416.0762">adhesionValable() : booleen</text></g><!--class E--><g id="elem_E"><rect codeLine="37" fill="#F1F1F1" height="215.5898" id="E" rx="2.5" ry="2.5" style="stroke:#181818;stroke-width:0.5;" width="187" x="582.5" y="503"/><ellipse cx="645.25" cy="519" fill="#ADD1B2" rx="11" ry="11" style="stroke:#181818;stroke-width:1.0;"/><path d="M648.0156,514.875 Q648.1719,514.6563 648.3594,514.5469 Q648.5469,514.4375 648.7656,514.4375 Q649.1406,514.4375 649.375,514.7031 Q649.6094,514.9531 649.6094,515.5625 L649.6094,517.0156 Q649.6094,517.625 649.375,517.8906 Q649.1406,518.1563 648.7656,518.1563 Q648.4219,518.1563 648.2188,517.9531 Q648.0156,517.7656 647.9063,517.25 Q647.8594,516.8906 647.6719,516.7031 Q647.3438,516.3281 646.7344,516.1094 Q646.125,515.8906 645.5,515.8906 Q644.7344,515.8906 644.0938,516.2188 Q643.4688,516.5469 642.9688,517.2969 Q642.4844,518.0469 642.4844,519.0781 L642.4844,520.1719 Q642.4844,521.4063 643.375,522.2344 Q644.2656,523.0469 645.8594,523.0469 Q646.7969,523.0469 647.4531,522.7969 Q647.8438,522.6406 648.2656,522.2031 Q648.5313,521.9375 648.6719,521.8594 Q648.8281,521.7813 649.0313,521.7813 Q649.3594,521.7813 649.6094,522.0469 Q649.875,522.2969 649.875,522.6406 Q649.875,522.9844 649.5313,523.3906 Q649.0313,523.9688 648.2344,524.2969 Q647.1563,524.75 645.8594,524.75 Q644.3438,524.75 643.1406,524.125 Q642.1563,523.625 641.4688,522.5625 Q640.7813,521.4844 640.7813,520.2031 L640.7813,519.0469 Q640.7813,517.7188 641.3906,516.5781 Q642.0156,515.4219 643.1094,514.8125 Q644.2031,514.1875 645.4375,514.1875 Q646.1719,514.1875 646.8125,514.3594 Q647.4688,514.5156 648.0156,514.875 Z " fill="#000000"/><text fill="#000000" font-family="sans-serif" font-size="14" lengthAdjust="spacing" textLength="53" x="665.75" y="524.7969">Emprunt</text><line style="stroke:#181818;stroke-width:0.5;" x1="583.5" x2="768.5" y1="535" y2="535"/><rect fill="none" height="6" style="stroke:#C82930;stroke-width:1.0;" width="6" x="590.5" y="546.8105"/><text fill="#000000" font-family="sans-serif" font-size="14" lengthAdjust="spacing" textLength="149" x="602.5" y="554.1074">num&#233;roEmprunt : entier</text><rect fill="none" height="6" style="stroke:#C82930;stroke-width:1.0;" width="6" x="590.5" y="565.4316"/><text fill="#000000" font-family="sans-serif" font-size="14" lengthAdjust="spacing" textLength="121" x="602.5" y="572.7285">dateEmprunt : date</text><rect fill="none" height="6" style="stroke:#C82930;stroke-width:1.0;" width="6" x="590.5" y="584.0527"/><text fill="#000000" font-family="sans-serif" font-size="14" lengthAdjust="spacing" textLength="161" x="602.5" y="591.3496">dateRetourEstim&#233;e : date</text><rect fill="none" height="6" style="stroke:#C82930;stroke-width:1.0;" width="6" x="590.5" y="602.6738"/><text fill="#000000" font-family="sans-serif" font-size="14" lengthAdjust="spacing" textLength="140" x="602.5" y="609.9707">dateRetourReel : date</text><line style="stroke:#181818;stroke-width:0.5;" x1="583.5" x2="768.5" y1="617.4844" y2="617.4844"/><ellipse cx="593.5" cy="632.2949" fill="#84BE84" rx="3" ry="3" style="stroke:#038048;stroke-width:1.0;"/><text fill="#000000" font-family="sans-serif" font-size="14" lengthAdjust="spacing" textLength="147" x="602.5" y="636.5918">infosEmprunt() : chaine</text><ellipse cx="593.5" cy="650.916" fill="#84BE84" rx="3" ry="3" style="stroke:#038048;stroke-width:1.0;"/><text fill="#000000" font-family="sans-serif" font-size="14" lengthAdjust="spacing" textLength="123" x="602.5" y="655.2129">renduMedia() : vide</text><ellipse cx="593.5" cy="669.5371" fill="#84BE84" rx="3" ry="3" style="stroke:#038048;stroke-width:1.0;"/><text fill="#000000" font-family="sans-serif" font-size="14" lengthAdjust="spacing" textLength="127" x="602.5" y="673.834">enCours() : booleen</text><ellipse cx="593.5" cy="688.1582" fill="#84BE84" rx="3" ry="3" style="stroke:#038048;stroke-width:1.0;"/><text fill="#000000" font-family="sans-serif" font-size="14" lengthAdjust="spacing" textLength="126" x="602.5" y="692.4551">enAlerte() : booleen</text><ellipse cx="593.5" cy="706.7793" fill="#84BE84" rx="3" ry="3" style="stroke:#038048;stroke-width:1.0;"/><text fill="#000000" font-family="sans-serif" font-size="14" lengthAdjust="spacing" textLength="148" x="602.5" y="711.0762">estDepasse() : booleen</text></g><!--class B--><g id="elem_B"><rect codeLine="49" fill="#F1F1F1" height="122.4844" id="B" rx="2.5" ry="2.5" style="stroke:#181818;stroke-width:0.5;" width="178" x="539" y="7"/><ellipse cx="584.75" cy="23" fill="#ADD1B2" rx="11" ry="11" style="stroke:#181818;stroke-width:1.0;"/><path d="M587.5156,18.875 Q587.6719,18.6563 587.8594,18.5469 Q588.0469,18.4375 588.2656,18.4375 Q588.6406,18.4375 588.875,18.7031 Q589.1094,18.9531 589.1094,19.5625 L589.1094,21.0156 Q589.1094,21.625 588.875,21.8906 Q588.6406,22.1563 588.2656,22.1563 Q587.9219,22.1563 587.7188,21.9531 Q587.5156,21.7656 587.4063,21.25 Q587.3594,20.8906 587.1719,20.7031 Q586.8438,20.3281 586.2344,20.1094 Q585.625,19.8906 585,19.8906 Q584.2344,19.8906 583.5938,20.2188 Q582.9688,20.5469 582.4688,21.2969 Q581.9844,22.0469 581.9844,23.0781 L581.9844,24.1719 Q581.9844,25.4063 582.875,26.2344 Q583.7656,27.0469 585.3594,27.0469 Q586.2969,27.0469 586.9531,26.7969 Q587.3438,26.6406 587.7656,26.2031 Q588.0313,25.9375 588.1719,25.8594 Q588.3281,25.7813 588.5313,25.7813 Q588.8594,25.7813 589.1094,26.0469 Q589.375,26.2969 589.375,26.6406 Q589.375,26.9844 589.0313,27.3906 Q588.5313,27.9688 587.7344,28.2969 Q586.6563,28.75 585.3594,28.75 Q583.8438,28.75 582.6406,28.125 Q581.6563,27.625 580.9688,26.5625 Q580.2813,25.4844 580.2813,24.2031 L580.2813,23.0469 Q580.2813,21.7188 580.8906,20.5781 Q581.5156,19.4219 582.6094,18.8125 Q583.7031,18.1875 584.9375,18.1875 Q585.6719,18.1875 586.3125,18.3594 Q586.9688,18.5156 587.5156,18.875 Z " fill="#000000"/><text fill="#000000" font-family="sans-serif" font-size="14" lengthAdjust="spacing" textLength="78" x="605.25" y="28.7969">Biblioth&#232;que</text><line style="stroke:#181818;stroke-width:0.5;" x1="540" x2="716" y1="39" y2="39"/><rect fill="none" height="6" style="stroke:#C82930;stroke-width:1.0;" width="6" x="547" y="50.8105"/><text fill="#000000" font-family="sans-serif" font-size="14" lengthAdjust="spacing" textLength="81" x="559" y="58.1074">nom : chaine</text><line style="stroke:#181818;stroke-width:0.5;" x1="540" x2="716" y1="65.6211" y2="65.6211"/><ellipse cx="550" cy="80.4316" fill="#84BE84" rx="3" ry="3" style="stroke:#038048;stroke-width:1.0;"/><text fill="#000000" font-family="sans-serif" font-size="14" lengthAdjust="spacing" textLength="152" x="559" y="84.7285">inscrireAdherent() : vide</text><ellipse cx="550" cy="99.0527" fill="#84BE84" rx="3" ry="3" style="stroke:#038048;stroke-width:1.0;"/><text fill="#000000" font-family="sans-serif" font-size="14" lengthAdjust="spacing" textLength="130" x="559" y="103.3496">ajouterMedia() : vide</text><ellipse cx="550" cy="117.6738" fill="#84BE84" rx="3" ry="3" style="stroke:#038048;stroke-width:1.0;"/><text fill="#000000" font-family="sans-serif" font-size="14" lengthAdjust="spacing" textLength="134" x="559" y="121.9707">creerEmprunt() : vide</text></g><!--reverse link M to L--><g id="link_M_L"><path codeLine="56" d="M300.57,380.14 C254.73,414.1 199.51,458.15 155,503 C138.11,520.02 121.5,540.47 107.63,558.9 " fill="none" id="M-backto-L" style="stroke:#181818;stroke-width:1.0;"/><polygon fill="none" points="296.72,374.27,316.99,368.1,305,385.57,296.72,374.27" style="stroke:#181818;stroke-width:1.0;"/></g><!--reverse link M to BR--><g id="link_M_BR"><path codeLine="57" d="M357.92,386.23 C332.67,439.08 298.44,510.72 275.58,558.57 " fill="none" id="M-backto-BR" style="stroke:#181818;stroke-width:1.0;"/><polygon fill="none" points="351.68,383.06,366.61,368.04,364.31,389.1,351.68,383.06" style="stroke:#181818;stroke-width:1.0;"/></g><!--reverse link M to Ma--><g id="link_M_Ma"><path codeLine="58" d="M406.7,387.77 C419.2,444.12 436.28,521.09 446.7,568.08 " fill="none" id="M-backto-Ma" style="stroke:#181818;stroke-width:1.0;"/><polygon fill="none" points="399.82,389.08,402.32,368.04,413.49,386.05,399.82,389.08" style="stroke:#181818;stroke-width:1.0;"/></g><!--reverse link M to E--><g id="link_M_E"><path codeLine="59" d="M444.35,371.84 C483.09,411.68 536.54,466.62 582.33,513.7 " fill="none" id="M-backto-E" style="stroke:#181818;stroke-width:1.0;"/><polygon fill="#181818" points="440.64,368.04,444.0636,377.2746,444.1323,371.6182,449.7888,371.6869,440.64,368.04" style="stroke:#181818;stroke-width:1.0;"/><polygon fill="#000000" points="551.4862,467.2297,547.2864,458.6967,543.0729,462.7949,551.4862,467.2297" style="stroke:#000000;stroke-width:1.0;"/><text fill="#000000" font-family="sans-serif" font-size="13" lengthAdjust="spacing" textLength="76" x="557" y="469.0283">est emprunt&#233;</text><text fill="#000000" font-family="sans-serif" font-size="13" lengthAdjust="spacing" textLength="22" x="423.5907" y="389.8524">1..1</text><text fill="#000000" font-family="sans-serif" font-size="13" lengthAdjust="spacing" textLength="20" x="554.3064" y="504.3025">0..*</text></g><!--reverse link A to E--><g id="link_A_E"><path codeLine="60" d="M646.37,429.16 C650.33,453.32 654.51,478.81 658.43,502.78 " fill="none" id="A-backto-E" style="stroke:#181818;stroke-width:1.0;"/><polygon fill="#181818" points="645.53,424.02,643.0461,433.5505,646.3427,428.9535,650.9397,432.2501,645.53,424.02" style="stroke:#181818;stroke-width:1.0;"/><polygon fill="#000000" points="659.8083,468.5797,661.2463,459.1785,655.4458,460.1287,659.8083,468.5797" style="stroke:#000000;stroke-width:1.0;"/><text fill="#000000" font-family="sans-serif" font-size="13" lengthAdjust="spacing" textLength="54" x="668" y="469.0283">emprunte</text><text fill="#000000" font-family="sans-serif" font-size="13" lengthAdjust="spacing" textLength="22" x="623.9483" y="445.5353">1..1</text><text fill="#000000" font-family="sans-serif" font-size="13" lengthAdjust="spacing" textLength="20" x="636.4915" y="491.6261">0..*</text></g><!--link B to M--><g id="link_B_M"><path codeLine="61" d="M570.02,129.18 C531.52,169.14 481.37,221.19 443.95,260.04 " fill="none" id="B-to-M" style="stroke:#181818;stroke-width:1.0;"/><polygon fill="#181818" points="440.37,263.76,449.4966,260.0579,443.8407,260.1608,443.7378,254.5049,440.37,263.76" style="stroke:#181818;stroke-width:1.0;"/><polygon fill="#000000" points="539.531,172.2463,547.923,167.7714,543.69,163.6933,539.531,172.2463" style="stroke:#000000;stroke-width:1.0;"/><text fill="#000000" font-family="sans-serif" font-size="13" lengthAdjust="spacing" textLength="49" x="552" y="174.0283">poss&#232;de</text><text fill="#000000" font-family="sans-serif" font-size="13" lengthAdjust="spacing" textLength="20" x="425.6603" y="252.6551">0..*</text></g><!--link B to E--><g id="link_B_E"><path codeLine="62" d="M696.26,129.02 C716.97,151.48 737.11,178.72 748,208 C783.08,302.31 757.13,415.61 727.05,497.85 " fill="none" id="B-to-E" style="stroke:#181818;stroke-width:1.0;"/><polygon fill="#181818" points="725.24,502.73,732.1077,495.6706,726.9705,498.039,724.6021,492.9018,725.24,502.73" style="stroke:#181818;stroke-width:1.0;"/><polygon fill="#000000" points="769.416,321.1282,771.5922,311.87,765.7347,312.3589,769.416,321.1282" style="stroke:#000000;stroke-width:1.0;"/><text fill="#000000" font-family="sans-serif" font-size="13" lengthAdjust="spacing" textLength="25" x="778" y="321.5283">g&#232;re</text><text fill="#000000" font-family="sans-serif" font-size="13" lengthAdjust="spacing" textLength="20" x="707.9991" y="491.5726">0..*</text></g><!--link B to A--><g id="link_B_A"><path codeLine="63" d="M628,129.18 C628,151.45 628,177.47 628,202.88 " fill="none" id="B-to-A" style="stroke:#181818;stroke-width:1.0;"/><polygon fill="#181818" points="628,207.95,632,198.95,628,202.95,624,198.95,628,207.95" style="stroke:#181818;stroke-width:1.0;"/><polygon fill="#000000" points="633,163.6455,630.0611,172.6906,635.9389,172.6906,633,163.6455" style="stroke:#000000;stroke-width:1.0;"/><text fill="#000000" font-family="sans-serif" font-size="13" lengthAdjust="spacing" textLength="50" x="642" y="174.0283">adh&#232;re a</text><text fill="#000000" font-family="sans-serif" font-size="13" lengthAdjust="spacing" textLength="20" x="607.2969" y="196.808">0..*</text></g><!--SRC=[TLFBZfmm4Bpp5HQv95anobwZqKgGp6s8LaJAlO4EuyZO4pz6IYRxFpFVmO-bCR0yroVJrLtLNMuWDrP3OLaXm1WMfiszv10oC2oz1epEEsQvrSW-i-84N68VB9rkxdYepzf9Io1Aor5xy85TeQTzOLp-LBe6ovKqAHBt-m-KJIYNLV0I1BtkaLyqUjbZ9ninRd8vLuqOE8jEBwCoVuOApTZ5o9i85sNmnpCdsK1DhOFW1hR8ki5Mmb8YVbUQw4Teb4cXWhyKweo3GKUwkhbhDQ1pcqYA6dXskU25zuVWDZAXZSiJrLEDvuqdjAWLWTXYorRF55JrogDr26lWOZK-TU1bpQIZ3gfGag3-vjNzCqug7rWhwoueKB_M-wGBBuUKTXdCwr1h2g2HsheV820Nw1DofGIYdBZIBvttvB2mUdCXkwb6Q39JUytGAgSFnlAwU_bDF4CKKwoVfcVTjADquyPFN43vXVZCRBe1YSa-YrkGiL_nJFE_vKh2QP6KFJMttwxRm-JwrjktlPj2Sut34YrxX5-AVZMzsN-X4VLqRezH9odR_uiYTXmkIJRSKg1R-BZRFOPiJzyXcvrFkzt7yD0-ch6qbfwvkREd89uLZMbT2b96mgBegOTIWixAcEPMBg6sgcfkUXcFAKvRvn5W-o3u3m00]--></g></svg>